# xmcd CD database file
#
# Track frame offsets:
#	150
#	17850
#	44478
#	62305
#	86161
#	98469
#	116340
#	137326
#	152912
#	181209
#	198254
#	218400
#	234961
#
# Disc length: 3342 seconds
#
# Revision: 0
# Processed by: cddbd v1.5.2PL0 Copyright (c) Steve Scherf et al.
# Submitted via: CDex 1.70beta2
#
DISCID=990d0c0d
DTITLE=Adderley, Julian Cannonball - Spectakular
DYEAR=1957
DGENRE=Jazz
TTITLE0=Spectacular
TTITLE1=That Funky Train
TTITLE2=18th Century Ballroom
TTITLE3=Edie McLin
TTITLE4=Cobbweb
TTITLE5=Lover Man
TTITLE6=Hoppin' John
TTITLE7=Jeannie
TTITLE8=Miss  Jackie's Delight
TTITLE9=Spring Is Here
TTITLE10=The Way You Look Tonight
TTITLE11=Another Kind Of Soul
TTITLE12=Tribute To Brownie
EXTD=YEAR: 1957
EXTT0=
EXTT1=
EXTT2=
EXTT3=
EXTT4=
EXTT5=
EXTT6=
EXTT7=
EXTT8=
EXTT9=
EXTT10=
EXTT11=
EXTT12=
PLAYORDER=
